# xmcd
#
# Track frame offsets:
#	150
#	37206
#	58804
#	87971
#	115394
#	133948
#	157880
#	184945
#	213740
#	242121
#	267054
#	290973
#
# Disc length: 4300
#
# Revision: 2
# Processed by: cddbd v1.5.1PL0 Copyright (c) Steve Scherf et al.
# Submitted via: audiograbber 1.83.01
# Normalized: r1:DSETVAR1
#
DISCID=c110ca0c
DTITLE=Various Artist - Live At The Yale - Storman Norman's Sunday Blues 10th Anniversary
DYEAR=2001
DGENRE=Blues
TTITLE0=Incognito - That's What Love Will Make You Do
TTITLE1=Gary Comeau - Home Of The Mardis Gras
TTITLE2=Jerry Doucette - Help Me
TTITLE3=Texas Flood - Freight Train
TTITLE4=Ellie Johnson - Te-Ni-Nee-Ni-Nu
TTITLE5=Tony Robertson's Vaqueros - Boogieman
TTITLE6=Jim Byrnes - Hot As A Pistol
TTITLE7=Jim Byrnes - What'd I Say
TTITLE8=Brickhouse - Lucky One
TTITLE9=Hans Stamer - Good Morning Blues
TTITLE10=James Belushi - Party, Party
TTITLE11=Brickhouse - That's My Plan
EXTD=
EXTT0=
EXTT1=
EXTT2=
EXTT3=
EXTT4=
EXTT5=
EXTT6=
EXTT7=
EXTT8=
EXTT9=
EXTT10=
EXTT11=
PLAYORDER=
